<?xml version="1.0" encoding="UTF-8"?>
<svg id="Camada_1" data-name="Camada 1" xmlns="http://www.w3.org/2000/svg" viewBox="0 0 1666.79 103.37">
  <defs>
    <style>
      .cls-1 {
        fill: #fff;
      }
    </style>
  </defs>
  <path d="M796.16,31.86c-.72-1.68-1.55-3.29-2.45-4.83-.67-1.15-1.39-2.27-2.18-3.35-.26-.37-.52-.72-.79-1.07-.52-.71-1.09-1.4-1.66-2.07-.85-1.01-1.77-1.99-2.71-2.92-4.09-4.05-8.91-7.39-14.27-10.04-.83-.41-1.66-.79-2.52-1.17-1.69-.75-3.45-1.42-5.23-2.03-.45-.16-.9-.3-1.35-.45-3.14-1.01-6.42-1.81-9.77-2.41h-.01c-5.56-.98-11.33-1.4-17.19-1.24h-.13c-1.59.05-3.18.14-4.78.26-.81.07-1.64.14-2.45.24-.9.09-1.79.21-2.67.34-2.21.34-4.39.77-6.5,1.31-.42.1-.84.22-1.26.34-.83.24-1.65.48-2.48.75-.41.13-.81.26-1.22.41-7.26,2.52-13.73,6.28-19.12,11.01-.6.54-1.18,1.07-1.76,1.61-.29.28-.56.56-.85.84-.3.29-.58.56-.83.85-.54.56-1.06,1.14-1.59,1.73-.26.3-.52.62-.76.92-.5.6-.97,1.21-1.45,1.83t0,.01c-.46.62-.92,1.24-1.36,1.89-.22.33-.45.66-.64.98-7.61,11.81-10.05,26.74-4.82,42.49.42,1.31.92,2.63,1.45,3.96,4.02,9.81,11.33,17.27,20.43,22.42,1.21.68,2.44,1.34,3.71,1.93,1.27.62,2.57,1.18,3.9,1.7,22.46,8.91,51.93,6.07,70.69-7.97,1-.75,1.95-1.52,2.88-2.32.01-.01.01,0,.01,0,.62-.55,1.22-1.1,1.81-1.65.3-.29.59-.58.88-.86.85-.86,1.69-1.77,2.48-2.69.54-.62,1.05-1.24,1.53-1.9.25-.33.48-.66.72-.98,1.19-1.65,2.27-3.39,3.21-5.21.58-1.09,1.1-2.21,1.57-3.38.33-.76.62-1.55.89-2.35.42-1.21.79-2.42,1.09-3.68.42-1.68.75-3.42.97-5.2,1.36-10.78-.01-20.14-3.43-28.03ZM782.59,65.17c-8.99,28.83-60.84,31.53-79.4,12.07-14.6-15.3-11.6-48.09,8.84-57.73,32.8-15.5,84.26,1.78,70.56,45.66Z"/>
  <path class="cls-1" d="M975.27,21.34l-4.19,4.33-38.61,76.7c-4.91.12-12.52,1.59-16.23-2.06l-37.61-77.29-2.94-1.67-1.51,79.09c-.85,3.12-10.68,2.88-11.76,1.39l.06-99.56c5.29-.49,18.86-2.26,22.42,1.69l41.19,81.61L968.06,1.68h19.65l1.97,1.97v96.96c-3.68,3.89-9.9,1.68-14.41.66V21.34Z"/>
  <path class="cls-1" d="M1422.08,3.65c.99-3.21,19.62-3.05,22.58.63l62.59,78,2.62-1.32V3.65c1.81-2.99,12.44-2.75,13.84-.74.87,16.24.8,32.89.63,49.27-.11,10.56-1.67,21.52-1.43,32.77.11,5.06,4.26,15.47-2.17,17.36-4.2,1.23-14.54.5-18.12-2.32-21.75-23.5-39.51-53.31-60.93-76.65-1.47-1.6-2.62-3.74-5.2-3.32v81.24c-4.51,1.02-10.73,3.24-14.41-.66V3.65Z"/>
  <path class="cls-1" d="M1210.47,1.68c3,.44,13.15,4.43,16.04,6.23,17.51,10.94,16.16,35.21,1.68,48.18-3.19,2.86-8.35,2.96-7.93,7.74.42,4.86,20.08,26.57,22.91,33.56.71,1.76.95,3.3.72,5.18-3.51-.35-7.76.61-11.11-.02-8.24-1.57-22.15-33.25-30.16-39.28h-43.89c.43,1.29-1.31,2.84-1.31,3.28v34.07c-3.64,3.55-13.44,3.38-14.38-2.66.25-18.33-.45-36.72-.09-55.05.17-8.46,1.55-17.06,1.43-26.21-.07-5.66-3.47-10.51,1.9-15.01h64.2ZM1202.6,14.79c-12.02-1.42-29.23,0-41.93,0-.23,0-2.31,2.02-2.6,2.64-2.48,5.3-.41,26.03.64,32.74h50.45c.64,0,10.1-5,11.16-6.23,6.05-6.98,5.62-19.43-2.75-24.45-2.32-1.39-12.28-4.37-14.96-4.69Z"/>
  <path class="cls-1" d="M796.16,31.86c-.73-1.68-1.55-3.29-2.45-4.83-.68-1.15-1.4-2.28-2.18-3.35-.26-.37-.52-.72-.79-1.07-.54-.71-1.09-1.4-1.66-2.07-.86-1.01-1.77-1.98-2.71-2.92-4.09-4.05-8.91-7.39-14.27-10.04-.83-.41-1.66-.8-2.52-1.17-1.69-.75-3.45-1.43-5.23-2.03-.45-.16-.9-.3-1.35-.45-3.16-1.02-6.42-1.82-9.77-2.41h-.01c-5.56-.98-11.33-1.4-17.19-1.24h-.13c-1.59.04-3.18.13-4.78.26-.81.07-1.64.14-2.45.24-.9.09-1.79.21-2.67.34-2.21.34-4.39.77-6.5,1.31-.42.1-.84.22-1.26.34-.83.22-1.65.47-2.48.75-.41.13-.81.26-1.22.41-7.26,2.5-13.73,6.28-19.12,11.01-.6.52-1.19,1.06-1.76,1.61-.29.28-.56.56-.85.84-.3.29-.58.56-.83.85-.54.56-1.06,1.14-1.59,1.73-.26.3-.52.62-.76.92-.5.6-.97,1.21-1.45,1.83t0,.01c-.46.62-.92,1.24-1.36,1.89-.22.33-.45.66-.64.98-7.63,11.82-10.06,26.74-4.82,42.49.42,1.31.92,2.63,1.45,3.96,4.02,9.81,11.33,17.27,20.43,22.42,1.21.68,2.44,1.32,3.71,1.93,1.27.62,2.57,1.18,3.9,1.7,22.46,8.9,51.93,6.04,70.69-7.97,1-.75,1.95-1.52,2.88-2.32.01-.01.01,0,.01,0,.62-.55,1.22-1.1,1.81-1.65.3-.29.59-.58.88-.86.85-.86,1.69-1.77,2.48-2.69.52-.63,1.04-1.26,1.53-1.9.25-.33.48-.66.72-.98,1.19-1.65,2.25-3.39,3.21-5.21.56-1.1,1.09-2.23,1.57-3.38.31-.77.62-1.56.89-2.35.41-1.21.77-2.42,1.09-3.68.41-1.69.73-3.42.96-5.2,1.36-10.78-.01-20.14-3.42-28.03ZM782.59,65.17c-8.99,28.83-60.84,31.53-79.4,12.07-14.6-15.3-11.6-48.09,8.84-57.73,32.8-15.5,84.26,1.78,70.56,45.66Z"/>
  <path class="cls-1" d="M1642.09,8.99c-46.11-26.09-116.52,7.38-91.86,64.35,15.21,35.14,76.48,38.39,101.99,14.36,23.41-22.05,17.56-63.04-10.13-78.71ZM1641.74,77.22c-21.7,21.72-77.4,15.36-80.75-19.86-3.38-35.53,26.39-46.48,56.87-42.45,30.36,4,45.78,40.38,23.89,62.32Z"/>
  <path class="cls-1" d="M105.24,91.44c-1.07,3.87-17.53,8.82-21.77,9.68C41.17,109.69-5.7,94.07.57,43.1,5.17,5.64,49.36-4.01,80.67,2.01c4.29.82,23.46,6.13,23.05,10.56l-5.8,10.14c-17.83-8.25-44.28-12.25-62.44-3.66-30.8,14.57-26.33,60.06,6.55,68.77,10.8,2.86,36.36,2.41,46.12-3,4.8-2.66,3.51-24.18-.59-24.18h-30.79c.37-3.95-1.46-9,1.97-11.79h44.55l1.97,1.97v40.62Z"/>
  <path class="cls-1" d="M287.11.77c16.28-1.67,37.33.76,51.29,9.61l-6.04,10.84c-7.52-1.41-14.5-5.45-22.2-6.3-9.26-1.02-32.93-1.73-39.76,4.51-7.83,7.16-.35,13.36,6.46,16.99,16.59,8.83,38.22,7.62,54.19,19.19,10.73,7.78,13.91,20.27,7.68,32.16-10.63,20.31-60.61,16.52-78.85,10.18-11.47-3.98-11.66-7.42-3.14-16.23,11.32,9.32,65.15,12.79,69.66-2.35,2.31-7.74-2.46-11.25-8.47-14.57-16.84-9.29-67.37-11.11-65.86-38.7.99-17.99,20.04-23.81,35.04-25.34Z"/>
  <path class="cls-1" d="M1124.64,102.57c-18.49,3.93-20.33-17.34-28.48-28.84l-40.38-1.35-18.1,1.48-14.26,27.08-14.09,1.64,49.77-100.25c10.03-1.46,13.49-2.69,18.94,6,14.16,22.59,31.2,58.25,42.87,82.91.9,1.91,5.06,9.98,3.73,11.34ZM1068.28,18.72c-2.34-.51-2.58.69-3.71,2.17-7.04,9.25-11.32,25.59-18.28,35.49l1.9,4.15,39.77-1.21-19.67-40.6Z"/>
  <path class="cls-1" d="M128.83,3.65l2.17-1.76c1.66-.37,3.35-.29,5.04-.29,2.68,0,5.54-.44,7.21,2.05v61.58c0,3.31,6.8,15.2,9.8,17.71,10.27,8.61,36.5,8.78,47.73,1.82,4.56-2.82,11.91-12.98,11.91-18.22V3.65l2.17-1.76c1.66-.37,3.35-.29,5.04-.29,2.68,0,5.54-.44,7.21,2.05v68.13c0,1.97-6.05,13.36-7.89,15.69-18.59,23.49-80.08,21.93-88.17-11.35-.6-2.49-2.21-11.54-2.21-13.52V3.65Z"/>
  <path class="cls-1" d="M607.1,82.92l3.73-2.15L646.52,3.78c1.97-3.24,18.49-3.93,15.83,1.38l-44.29,93.32c-2.46,6.19-15.44,5.08-18.72.68L554.73,3.63c.23-2.76,11.91-2.48,14.36-1.3,5.25,2.53,32.47,70.54,38.01,80.59Z"/>
  <path class="cls-1" d="M1406.35,102.57c-4.97-.72-12.09,2.03-15.58-2.09-6.31-8.08-33.31-76.75-37.5-77.82s-33.95,72.24-38.51,79.08l-15.85.83,45.84-98.93,16.41.65,45.18,98.28Z"/>
  <path class="cls-1" d="M555.98,102.56c-5.31-.68-12.73,2.18-16.34-2.65l-29.82-73.69-2.97-3.55-32.35,75.07c-3.21,6.54-9.34,4.78-15.48,4.83L497.85,4.19c4.57-1.32,15.65-2.98,18.68.91l39.45,97.47Z"/>
  <path class="cls-1" d="M461.64,1.68c1.67,4.67,1.67,8.42,0,13.1h-39.96c-5.22,0-1.96,11.12-1.91,13.7.46,23.48-.24,47.06-.32,70.55-1.72,5.86-15.46,4.91-15.46-2.36V18.06l-1.97-1.97h-36.69c-.36,0-4.5-1.55-4.66-2.13.48-4.09-1.43-9.39,2.04-12.29h98.93Z"/>
  <path class="cls-1" d="M1264.84,102.58V1.68l12.26.18,2.15,3.09-.27,94.08c-1.56,5.31-9.79,3.22-14.15,3.54Z"/>
</svg>