<?xml version="1.0" encoding="UTF-8"?>
<svg id="Camada_1" data-name="Camada 1" xmlns="http://www.w3.org/2000/svg" viewBox="0 0 825.47 938.57">
  <defs>
    <style>
      .cls-1 {
        fill: #fff;
      }
    </style>
  </defs>
  <path class="cls-1" d="M405.19.45c3.54-.74,7.54-.44,11.12,0,111.36,59.52,220.27,124.13,329.33,187.89,19.44,11.37,40.06,21.29,59.28,32.99,21.94,13.35,16.54,20.66,17.74,43.34,7.47,141.39-2.83,286.91,1.41,428.85-.16,9.77-6.38,15.09-13.96,19.83-22.94,14.37-57,34.82-80.94,46.42-5.8,2.81-11.66,7.53-15.35-.3-.7-135.07.02-270.16-.33-405.25-.04-16.52,2.2-35.26-.05-51.81-1.61-11.85-14.77-18.26-24.18-23.91-7.17-4.3-43.84-24.85-49.11-25.04-2-.07-4.08-.14-5.96.67-3.79,2.69-2.92,50.95-1.15,58.5-5.62,157.56,7.26,320.07,0,477.06-.27,5.87-1.12,22.06-3.93,25.96l-99.55,59.06c-3.89.54-6.44.23-7.76-3.79.04-7.48-1.62-15.57-1.94-22.75-4.79-107.82,1.17-221.84,1.42-330.08.26-110.7.19-221.45-.67-332.13-1.2-3.4-2.73-5.26-5.44-7.56-5.12-4.34-36.64-21.6-43.34-24.22-2.32-.91-6.72-2.37-9.04-1.37-2.72,1.93-4.35,4.9-4.94,8.15-3.65,20.15.88,53.73,1.05,75.01.57,69.57-3.54,143.26-.01,211.83.49,9.45,1.79,16.73-10.38,12.98-28.56-17.98-60.08-32.35-88.33-50.71-8.6-5.59-11.79-8.99-12.94-19.55l-.02-347.97c1.04-5.14,1.95-9.86,5.89-13.6,5.06-4.82,45.51-27.1,52.08-28.48Z"/>
  <path class="cls-1" d="M289.57,64.08c12.26-1.18,6.9,16.37,6.77,22.45-.57,27.75,2.21,58.72.1,85.87-1.51,19.38-14.35,23.05-29.06,32.02-44.51,27.14-93.27,50.9-137.22,78.51-13.38,8.41-18.49,10.04-19.66,27.12l.13,327.47,5.99,8.31c66.39,36.78,131.24,76.17,197.54,113.05,6.3,3.51,15.88,11.06,21.56,13.55,7.7,3.37,11.53-2.96,11.4-10.03l-.63-158.01c-2.46-7.79-38.16-23.23-47.08-28.3-18.64-10.6-37.47-21.49-55.88-32.49-11.13-6.65-27.75-12.8-29.07-26.81-2.83-30.13,2.01-64.34,1.41-94.98-.14-7.25-4.61-17.07,2.11-22.54,1.95-.65,3.52.25,5.27.86,6.84,2.38,23.11,13.16,30.64,17.45,62.51,35.55,126.47,70.99,187.61,108.69,15.84,9.77,16.22,11.48,17.37,30.71,6.22,103.48-4.82,213.09,0,317.21-4.07,13.23,3.57,36.18-7.41,45.87-5.15,4.55-31.06,17.47-37.6,18.29-2.81.35-5.63.44-8.35-.53-134.56-74.3-267.53-152.15-399.65-230.62l-5.67-12.52L.04,246.37c-.93-17.65,13.62-23.03,26.47-30.71,76.77-45.89,155.52-88.71,232.86-133.62,6.56-3.81,24.28-17.4,30.19-17.97Z"/>
</svg>